<svg xmlns="http://www.w3.org/2000/svg" class="c-site-header__logo" viewBox="0 0 174 38" alt="De Amersfoortse">
                        <g>
                            <path id="c-site-header__logo-text" fill="#000" d="M 107.86 12.717 l 0.054 -2.018 c 0.525 -0.068 3.63 -0.08 4.95 0.08 l 0.142 -2.783 h -7.997 c 0.026 3.94 -0.377 10.342 -0.513 12.386 h 3.068 l 0.16 -4.87 c 0.35 -0.053 3.168 -0.086 4.036 0.04 l 0.08 -2.836 c -1.76 0.067 -3.67 0.107 -3.98 0 Z m -7.8 -1.358 c 0.032 -0.72 0.627 -0.93 1.293 -0.93 c 0.537 0 1.562 0.15 2.11 0.43 V 8.037 c -1.083 -0.266 -1.376 -0.322 -2.702 -0.322 c -2.662 0 -4.1 1.29 -4.02 3.725 c 0.043 1.356 0.903 2.4 1.87 3.32 c 0.873 0.835 1.958 1.697 1.87 2.274 c -0.096 0.598 -0.486 0.888 -1.44 0.888 c -0.885 0 -1.76 -0.3 -2.58 -0.727 v 3.058 c 0.922 0.29 2.31 0.385 2.97 0.385 c 3.38 0 4.343 -1.642 4.41 -3.497 c 0.108 -2.97 -3.832 -4.526 -3.78 -5.78 Z m -7.327 -3.424 c -0.825 0 -4.09 0.02 -6.1 0 c 0.028 4.1 -0.25 10.053 -0.47 12.447 h 3.106 c 0.03 -1.75 0.18 -6.51 0.342 -9.866 H 91.4 c 0.856 0 1.44 0.248 1.44 1.372 c 0 0.39 -0.25 0.85 -0.47 1.07 c -0.22 0.213 -0.583 0.463 -1.507 0.463 c -0.293 0 -0.584 -0.026 -0.834 -0.074 l 2.255 7.033 h 3.54 l -2.05 -5.49 c -0.014 -0.034 -0.024 -0.065 0.006 -0.078 c 1.07 -0.538 2.146 -1.397 2.234 -3.47 c 0.094 -2.206 -1.184 -3.41 -3.28 -3.41 Z m 63.498 0.053 h -9.292 l -0.19 2.844 c 0.996 -0.108 2.96 -0.108 3.23 -0.054 c 0.04 1.035 -0.324 9.36 -0.35 9.576 h 3.12 c -0.108 -2.824 0.108 -8.473 0.188 -9.576 c 0.404 -0.08 2.825 0.067 3.2 0.12 l 0.095 -2.91 Z m -12.807 -0.054 c -0.618 0 -4.116 0.02 -6.1 0 c 0.03 4.1 -0.248 10.053 -0.47 12.447 h 3.106 c 0.03 -1.75 0.182 -6.51 0.343 -9.866 h 1.788 c 0.856 0 1.44 0.248 1.44 1.372 c 0 0.39 -0.25 0.85 -0.47 1.07 c -0.217 0.213 -0.582 0.463 -1.507 0.463 c -0.29 0 -0.583 -0.026 -0.834 -0.074 l 2.256 7.033 h 3.54 l -2.05 -5.49 c -0.014 -0.034 -0.025 -0.065 0.006 -0.078 c 1.07 -0.538 2.144 -1.397 2.232 -3.47 c 0.095 -2.206 -1.183 -3.41 -3.28 -3.41 Z m -25.107 9.905 c -1.3 0 -2.508 -1.145 -2.508 -3.436 c 0 -1.66 0.564 -3.923 2.69 -3.923 c 1.626 0 2.65 1.302 2.65 3.468 c 0 2.312 -0.986 3.893 -2.832 3.893 Z m 0.222 -10.153 c -2.815 0 -5.972 1.838 -5.972 6.832 c 0 2.34 1.094 6.064 5.864 6.064 c 3.56 0 5.918 -2.497 5.918 -6.872 c 0 -3.802 -2.403 -6.025 -5.81 -6.025 Z M 11.308 20.382 h 8.382 l 0.093 -2.848 s -1.523 0.12 -2.9 0.12 c -0.742 0 -2.292 -0.04 -2.292 -0.04 l 0.093 -2.083 c 0.615 -0.07 3.51 -0.055 4.354 0.015 l 0.11 -2.83 s -0.722 0.07 -2.205 0.07 c -1.126 0 -2.126 -0.05 -2.126 -0.05 l 0.12 -1.968 s 1.55 -0.053 2.357 -0.053 c 1.43 0 2.835 0.092 2.835 0.092 l 0.145 -2.81 h -8.315 c -0.1 5.107 -0.615 12.016 -0.65 12.386 Z m 65.334 0 h 8.38 l 0.093 -2.847 s -1.523 0.12 -2.9 0.12 c -0.742 0 -2.292 -0.04 -2.292 -0.04 l 0.093 -2.082 c 0.614 -0.073 3.51 -0.057 4.354 0.013 l 0.11 -2.83 s -0.722 0.07 -2.205 0.07 c -1.126 0 -2.126 -0.052 -2.126 -0.052 l 0.118 -1.966 s 1.55 -0.053 2.357 -0.053 c 1.43 0 2.835 0.092 2.835 0.092 l 0.146 -2.81 H 77.29 c -0.1 5.107 -0.615 12.015 -0.648 12.386 Z m -68.75 -5.828 c -0.266 1.96 -0.77 3.082 -3.357 3.082 h -0.8 l 0.37 -6.922 h 0.872 c 2.28 -0.106 3.242 1.408 2.914 3.84 Z M 6.38 7.997 H 1.1 l -0.65 12.385 H 5.11 c 4.94 0 5.765 -3.862 5.88 -6.053 c 0.23 -4.42 -1.898 -6.333 -4.61 -6.333 Z m 163.886 2.718 c 1.43 0 2.835 0.092 2.835 0.092 l 0.144 -2.81 h -8.314 c -0.1 5.107 -0.616 12.015 -0.65 12.386 h 8.38 l 0.095 -2.848 s -1.524 0.12 -2.9 0.12 c -0.743 0 -2.293 -0.04 -2.293 -0.04 l 0.093 -2.082 c 0.616 -0.073 3.51 -0.057 4.355 0.013 l 0.108 -2.83 s -0.72 0.07 -2.204 0.07 c -1.125 0 -2.126 -0.052 -2.126 -0.052 l 0.12 -1.966 s 1.55 -0.053 2.358 -0.053 Z M 57.565 13.73 H 55.32 c -0.06 -0.022 -0.104 -0.083 -0.06 -0.168 c 0.516 -1 1.28 -2.93 1.388 -3.332 c 0.01 -0.043 0.08 -0.046 0.092 0 c 0.217 1.28 0.805 3.114 0.885 3.332 c 0.032 0.09 0 0.146 -0.06 0.17 Z M 71.27 7.975 c -0.58 2.266 -1.867 6.455 -2.09 7.56 c -0.016 0.072 -0.1 0.066 -0.107 -0.005 c -0.158 -1.528 -1.26 -7.14 -1.408 -7.556 H 63.36 c -0.045 4.152 -0.58 9.344 -0.787 11.55 c -0.965 -2.777 -1.705 -5.534 -2.564 -8.326 c -0.136 -0.44 -0.5 -2.574 -0.645 -3.318 l -4.488 0.117 c -0.106 0.4 -1.35 3.17 -1.456 3.395 c -1.4 2.977 -2.646 6.056 -4.013 8.99 h 3.298 c 0.614 -1.562 1.046 -2.767 1.655 -3.972 h 3.974 c 0.265 0.86 0.783 2.436 1.007 3.973 h 5.85 c 0.08 -2.852 0.51 -6.488 0.585 -8.525 c 0.003 -0.072 0.13 -0.075 0.13 -0.007 c 0 0.36 1.568 7.94 1.648 8.532 h 2.488 c 0.862 -2.723 2.143 -7.032 2.56 -8.558 c 0.024 -0.077 0.12 -0.064 0.12 -0.002 c -0.06 2.342 -0.04 5.376 -0.288 8.56 h 2.844 c -0.08 -3.905 0.135 -9.073 0.188 -12.408 H 71.27 Z m 88.39 3.385 c 0.03 -0.72 0.625 -0.93 1.29 -0.93 c 0.538 0 1.564 0.15 2.112 0.43 V 8.037 c -0.98 -0.24 -1.43 -0.322 -2.704 -0.322 c -2.663 0 -4.1 1.29 -4.02 3.725 c 0.043 1.356 0.902 2.4 1.87 3.32 c 0.874 0.835 1.96 1.697 1.868 2.274 c -0.094 0.598 -0.484 0.888 -1.44 0.888 c -0.883 0 -1.758 -0.3 -2.578 -0.727 v 3.058 c 0.922 0.29 2.31 0.385 2.97 0.385 c 3.378 0 4.343 -1.642 4.41 -3.497 c 0.108 -2.97 -3.83 -4.526 -3.78 -5.78 Z m -29.2 6.48 c -1.3 0 -2.508 -1.145 -2.508 -3.436 c 0 -1.66 0.563 -3.923 2.69 -3.923 c 1.626 0 2.65 1.302 2.65 3.468 c 0 2.312 -0.985 3.893 -2.832 3.893 Z m 0.222 -10.153 c -2.816 0 -5.972 1.838 -5.972 6.832 c 0 2.34 1.094 6.064 5.864 6.064 c 3.56 0 5.917 -2.497 5.917 -6.872 c 0 -3.802 -2.4 -6.025 -5.808 -6.025 Z" />
                            <path id="c-site-header__logo-icon" fill="#1b94d8" d="M 43.16 24.63 l 2.086 -13.644 c 1.23 -6.437 -2.93 -10.58 -8.02 -10.58 H 26.973 L 25.57 9.262 h 7.886 c 1.652 0 2.788 1.393 2.506 3.176 L 33.547 27.67 c -0.707 4.463 2.055 9.42 8.73 9.42 h 8.613 l 1.746 -9.162 h -7.104 c -1.78 0 -2.712 -1.35 -2.373 -3.297 Z m -19.91 0.16 c -0.263 1.657 -1.682 3.43 -4.45 3.43 l -5.16 -0.003 l -1.41 8.897 h 7.67 c 7.035 0 10.935 -4.165 11.748 -9.3 L 33.1 18.61 h -8.878 l -0.972 6.18 Z" />
                            <path id="c-site-header__logo-underline" fill="#000" d="M 87.34 34.37 c 0 -0.714 -0.756 -1.323 -1.55 -1.323 c -0.774 0 -1.46 0.588 -1.54 1.324 h 3.09 Z m -3.09 0.658 c 0.08 0.882 0.805 1.412 1.5 1.412 c 0.687 0 1.236 -0.295 1.5 -0.745 h 0.834 c -0.245 0.862 -1.294 1.412 -2.343 1.412 c -1.254 0 -2.332 -0.99 -2.332 -2.344 c 0 -1.353 1.078 -2.383 2.392 -2.383 c 1.42 0 2.382 1.157 2.382 2.648 h -3.93 Z m 5.68 0 c 0.078 0.882 0.803 1.412 1.5 1.412 c 0.686 0 1.235 -0.295 1.5 -0.745 h 0.834 c -0.245 0.862 -1.295 1.412 -2.344 1.412 c -1.255 0 -2.333 -0.99 -2.333 -2.344 c 0 -1.353 1.078 -2.383 2.392 -2.383 c 1.42 0 2.38 1.157 2.38 2.648 h -3.93 Z m 3.088 -0.657 c 0 -0.714 -0.754 -1.323 -1.55 -1.323 c -0.774 0 -1.46 0.588 -1.538 1.324 h 3.088 Z m 3.356 -1.205 c 0.362 -0.402 1.06 -0.785 1.617 -0.785 c 0.717 0 1.393 0.45 1.393 1.315 v 2.656 h 0.696 v 0.658 h -2.314 v -0.657 h 0.774 V 33.9 c 0 -0.47 -0.225 -0.814 -0.627 -0.814 c -0.647 0 -1.088 0.334 -1.54 0.755 v 2.51 h 0.745 v 0.658 h -2.343 v -0.657 h 0.755 v -3.214 h -0.755 v -0.657 h 1.6 v 0.685 Z m 8.936 -0.05 c 0.314 -0.352 0.922 -0.735 1.43 -0.735 c 0.56 0 1.01 0.324 1.256 0.815 c 0.54 -0.53 0.97 -0.815 1.687 -0.815 c 0.92 0 1.294 0.844 1.294 1.628 v 2.343 h 0.636 v 0.658 h -2.166 v -0.657 h 0.686 v -2.43 c 0 -0.53 -0.225 -0.834 -0.784 -0.834 c -0.432 0 -1 0.45 -1.207 0.766 v 2.5 h 0.647 v 0.656 h -2.156 v -0.657 h 0.666 v -2.43 c 0 -0.53 -0.226 -0.834 -0.784 -0.834 c -0.432 0 -1 0.45 -1.206 0.766 v 2.5 h 0.686 v 0.656 h -2.245 v -0.657 h 0.717 v -3.214 h -0.716 v -0.657 h 1.56 v 0.636 Z m 8.14 1.913 c 0.08 0.882 0.806 1.412 1.5 1.412 c 0.688 0 1.237 -0.295 1.5 -0.745 h 0.835 c -0.245 0.862 -1.295 1.412 -2.344 1.412 c -1.253 0 -2.332 -0.99 -2.332 -2.344 c 0 -1.353 1.08 -2.383 2.393 -2.383 c 1.422 0 2.383 1.157 2.383 2.648 h -3.932 Z m 3.09 -0.657 c 0 -0.714 -0.755 -1.323 -1.55 -1.323 c -0.773 0 -1.46 0.588 -1.54 1.324 h 3.09 Z m 3.307 -1 h 0.02 c 0.323 -0.724 0.97 -0.99 1.744 -0.99 v 0.745 c -1.39 0.1 -1.714 0.53 -1.714 1.677 v 1.55 h 0.842 v 0.656 h -2.44 v -0.657 h 0.754 v -3.214 h -0.754 v -0.657 h 1.55 v 0.89 Z m 2.52 3.638 v -0.657 h 0.746 v -5.763 h -0.706 v -0.657 h 1.55 v 4.627 l 1.627 -1.42 h -0.608 v -0.658 h 2.196 v 0.656 h -0.52 l -1.696 1.51 l 1.696 1.705 h 0.52 v 0.658 h -2.127 v -0.657 h 0.56 l -1.648 -1.646 v 1.647 h 0.568 v 0.658 h -2.157 Z m 10.378 -4.53 v 0.658 h -0.686 l 1.028 2.637 h 0.02 l 1.137 -2.637 h -0.735 v -0.657 h 2.117 v 0.656 h -0.617 l -1.687 3.872 h -0.578 l -1.56 -3.872 h -0.597 v -0.657 h 2.157 Z m 8.18 3.873 h 0.764 v 0.658 h -1.51 v -0.686 h -0.03 c -0.314 0.46 -0.96 0.785 -1.54 0.785 c -1.402 0 -2.245 -1.05 -2.245 -2.373 c 0 -1.324 0.843 -2.354 2.245 -2.354 c 0.58 0 1.226 0.334 1.54 0.785 h 0.03 v -0.686 h 1.51 v 0.656 h -0.766 v 3.215 Z m -2.235 0.09 c 0.734 0 1.47 -0.628 1.47 -1.706 c 0 -1.078 -0.736 -1.687 -1.47 -1.687 c -1.03 0 -1.482 0.844 -1.482 1.687 c 0 0.873 0.45 1.706 1.482 1.706 Z m 5.502 -3.275 c 0.364 -0.402 1.06 -0.785 1.62 -0.785 c 0.713 0 1.39 0.45 1.39 1.315 v 2.656 h 0.696 v 0.658 h -2.314 v -0.657 h 0.774 V 33.9 c 0 -0.47 -0.224 -0.814 -0.626 -0.814 c -0.647 0 -1.088 0.334 -1.54 0.755 v 2.51 h 0.745 v 0.658 h -2.343 v -0.657 h 0.756 v -3.214 h -0.756 v -0.657 h 1.598 v 0.685 Z m 11.848 3.186 h 0.765 v 0.658 h -1.51 v -0.686 h -0.03 c -0.313 0.46 -0.96 0.785 -1.54 0.785 c -1.4 0 -2.243 -1.05 -2.243 -2.373 c 0 -1.324 0.842 -2.354 2.244 -2.354 c 0.58 0 1.226 0.334 1.54 0.785 h 0.028 v -0.686 h 1.51 v 0.656 h -0.764 v 3.215 Z m -2.235 0.09 c 0.735 0 1.47 -0.628 1.47 -1.706 c 0 -1.078 -0.735 -1.687 -1.47 -1.687 c -1.03 0 -1.48 0.844 -1.48 1.687 c 0 0.873 0.45 1.706 1.48 1.706 Z m 5.444 0 c 0 0.352 -0.285 0.617 -0.63 0.617 c -0.342 0 -0.616 -0.265 -0.616 -0.617 c 0 -0.344 0.274 -0.628 0.617 -0.628 c 0.345 0 0.63 0.284 0.63 0.628 Z m 1.99 0.568 h -0.656 v -1.47 h 0.656 c 0.206 0.657 0.912 0.902 1.45 0.902 c 0.394 0 1.11 -0.04 1.11 -0.657 c 0 -1.158 -3.216 0.07 -3.216 -2.098 c 0 -0.942 0.814 -1.305 1.648 -1.305 c 0.5 0 0.99 0.197 1.372 0.52 v -0.42 h 0.657 v 1.38 h -0.695 c -0.08 -0.253 -0.236 -0.46 -0.452 -0.597 c -0.206 -0.138 -0.45 -0.216 -0.715 -0.216 c -0.58 0 -1.05 0.11 -1.05 0.618 c 0 1.137 3.217 0.098 3.217 2.05 c 0 1.01 -0.864 1.392 -1.765 1.392 c -0.56 0 -1.177 -0.118 -1.56 -0.55 v 0.45 Z m 5.818 -0.568 c 0 0.352 -0.284 0.617 -0.628 0.617 c -0.343 0 -0.617 -0.265 -0.617 -0.617 c 0 -0.344 0.274 -0.628 0.617 -0.628 c 0.344 0 0.628 0.284 0.628 0.628 Z m 2.686 -3.07 h 0.02 c 0.324 -0.724 0.97 -0.99 1.745 -0.99 v 0.745 c -1.393 0.1 -1.716 0.53 -1.716 1.677 v 1.55 h 0.843 v 0.656 h -2.442 v -0.657 h 0.756 v -3.214 h -0.755 v -0.657 h 1.55 v 0.89 Z m 3.49 3.07 c 0 0.352 -0.283 0.617 -0.626 0.617 s -0.618 -0.265 -0.618 -0.617 c 0 -0.344 0.275 -0.628 0.618 -0.628 c 0.343 0 0.627 0.284 0.627 0.628 Z" />
                        </g>
                    </svg>